# xmcd
#
# Track frame offsets:
# 150
# 14678
# 34371
# 49777
# 64187
# 79137
# 94888
# 109982
#
# Disc length: 1682 seconds
#
#
# Revision: 0
# Processed by: cddbd v1.5.1PL2 Copyright (c) Steve Scherf et al.
# Submitted via: FreeRIP 2.945 
#
DISCID=6d069008
DTITLE=Allison Krauss - OST - Paper Clip
DYEAR=1995
DGENRE=Country
TTITLE0=Jubilee
TTITLE1=Voices Carry
TTITLE2=Best That I Can Do
TTITLE3=Anniversary Song
TTITLE4=It Matters To Me
TTITLE5=Leaving On A Jet Plane
TTITLE6=Seven Year Ache
TTITLE7=Hold On
EXTD=
EXTT0=
EXTT1=
EXTT2=
EXTT3=
EXTT4=
EXTT5=
EXTT6=
EXTT7=
PLAYORDER=
